<svg width="20" height="20" viewBox="0 0 20 20" fill="none" xmlns="http://www.w3.org/2000/svg">
<path d="M17.14 10.9359C17.176 10.6359 17.2 10.3239 17.2 9.9999C17.2 9.6759 17.176 9.3639 17.128 9.0639L19.156 7.4799C19.336 7.3359 19.384 7.0719 19.276 6.8679L17.356 3.5439C17.236 3.3279 16.984 3.2559 16.768 3.3279L14.38 4.2879C13.876 3.9039 13.348 3.5919 12.76 3.3519L12.4 0.807902C12.364 0.567902 12.16 0.399902 11.92 0.399902H8.07998C7.83998 0.399902 7.64799 0.567902 7.61199 0.807902L7.25199 3.3519C6.66399 3.5919 6.12399 3.9159 5.63199 4.2879L3.24398 3.3279C3.02798 3.2439 2.77598 3.3279 2.65598 3.5439L0.735985 6.8679C0.615985 7.0839 0.663985 7.3359 0.855985 7.4799L2.88398 9.0639C2.83598 9.3639 2.79998 9.6879 2.79998 9.9999C2.79998 10.3119 2.82398 10.6359 2.87198 10.9359L0.843984 12.5199C0.663984 12.6639 0.615985 12.9279 0.723985 13.1319L2.64398 16.4559C2.76398 16.6719 3.01598 16.7439 3.23198 16.6719L5.61998 15.7119C6.12398 16.0959 6.65198 16.4079 7.23998 16.6479L7.59999 19.1919C7.64799 19.4319 7.83998 19.5999 8.07998 19.5999H11.92C12.16 19.5999 12.364 19.4319 12.388 19.1919L12.748 16.6479C13.336 16.4079 13.876 16.0839 14.368 15.7119L16.756 16.6719C16.972 16.7559 17.224 16.6719 17.344 16.4559L19.264 13.1319C19.384 12.9159 19.336 12.6639 19.144 12.5199L17.14 10.9359V10.9359ZM9.99999 13.5999C8.01999 13.5999 6.39998 11.9799 6.39998 9.9999C6.39998 8.0199 8.01999 6.3999 9.99999 6.3999C11.98 6.3999 13.6 8.0199 13.6 9.9999C13.6 11.9799 11.98 13.5999 9.99999 13.5999Z" fill="#C8C8C8"/>
</svg>
